<svg width="500" height="63" viewBox="0 0 500 63" fill="none" xmlns="http://www.w3.org/2000/svg">
<path d="M17.3982 2.28661C24.524 2.28661 29.9853 4.07384 33.7822 7.64831C37.5792 11.1702 39.4776 15.9011 39.4776 21.8411C39.4776 24.2065 39.1135 26.5982 38.3853 29.0163C37.7092 31.3817 36.5909 33.5369 35.0305 35.4819C33.5222 37.4268 31.4677 39.0038 28.867 40.2128C26.3184 41.3692 23.1716 41.9474 19.4267 41.9474H11.3128V60.3191H0V2.28661H17.3982ZM19.3487 30.8298C21.6373 30.8298 23.4057 30.3304 24.654 29.3317C25.9543 28.2804 26.8645 27.0713 27.3847 25.7046C27.9048 24.3379 28.1649 23.1552 28.1649 22.1564C28.1649 21.5782 28.0608 20.816 27.8528 19.8698C27.6967 18.8711 27.3327 17.8723 26.7605 16.8736C26.1884 15.8748 25.3042 15.0338 24.1079 14.3504C22.9636 13.6671 21.4032 13.3254 19.4267 13.3254H11.3128V30.8298H19.3487Z" fill="white"/>
<path d="M46.0891 31.3817C46.0891 27.3867 46.8433 23.602 48.3517 20.0275C49.86 16.4531 51.9405 13.2991 54.5932 10.5657C57.2978 7.77973 60.4186 5.59825 63.9555 4.02128C67.4923 2.44431 71.2892 1.65582 75.3462 1.65582C79.3512 1.65582 83.1221 2.44431 86.659 4.02128C90.1959 5.59825 93.3166 7.77973 96.0213 10.5657C98.7779 13.2991 100.91 16.4531 102.419 20.0275C103.979 23.602 104.759 27.3867 104.759 31.3817C104.759 35.4819 103.979 39.3192 102.419 42.8936C100.91 46.4681 98.7779 49.622 96.0213 52.3554C93.3166 55.0363 90.1959 57.1389 86.659 58.6633C83.1221 60.1877 79.3512 60.9499 75.3462 60.9499C71.2892 60.9499 67.4923 60.1877 63.9555 58.6633C60.4186 57.1389 57.2978 55.0363 54.5932 52.3554C51.9405 49.622 49.86 46.4681 48.3517 42.8936C46.8433 39.3192 46.0891 35.4819 46.0891 31.3817ZM57.792 31.3817C57.792 34.7985 58.5722 37.9262 60.1325 40.7647C61.7449 43.5507 63.9035 45.7847 66.6081 47.4668C69.3128 49.0964 72.3555 49.9111 75.7363 49.9111C79.0131 49.9111 81.9519 49.0964 84.5525 47.4668C87.2051 45.7847 89.2856 43.5507 90.794 40.7647C92.3024 37.9262 93.0566 34.7985 93.0566 31.3817C93.0566 27.8598 92.2764 24.7059 90.716 21.9199C89.1556 19.0814 87.0491 16.8473 84.3964 15.2178C81.7438 13.5357 78.7531 12.6946 75.4243 12.6946C72.0954 12.6946 69.1047 13.5357 66.4521 15.2178C63.7994 16.8473 61.6929 19.0814 60.1325 21.9199C58.5722 24.7059 57.792 27.8598 57.792 31.3817Z" fill="white"/>
<path d="M127.507 22.9449L127.195 25.8623L128.911 23.6546L147.636 2.28661H162.303L138.586 28.3066L162.381 60.3191H148.026L130.316 35.5607L127.507 38.3992V60.3191H116.038V2.28661H127.507V22.9449Z" fill="white"/>
<path d="M170.971 2.28661H210.137V13.3254H182.284V25.7046H206.938V36.7434H182.284V49.2804H211.229V60.3191H170.971V2.28661Z" fill="white"/>
<path d="M240.331 2.28661C247.561 2.28661 253.101 4.07384 256.949 7.64831C260.85 11.1702 262.801 15.9011 262.801 21.8411C262.801 25.1527 262.099 28.4118 260.694 31.6183C259.342 34.8248 257.027 37.3742 253.751 39.2666L267.092 60.3191H253.907L241.814 41.8686H234.246V60.3191H222.933V2.28661H240.331ZM242.282 30.8298C244.57 30.8298 246.339 30.3567 247.587 29.4105C248.888 28.4118 249.798 27.2553 250.318 25.9412C250.838 24.5745 251.098 23.3392 251.098 22.2353C251.098 21.6045 250.994 20.816 250.786 19.8698C250.63 18.8711 250.266 17.8723 249.694 16.8736C249.122 15.8748 248.237 15.0338 247.041 14.3504C245.897 13.6671 244.336 13.3254 242.36 13.3254H234.246V30.8298H242.282Z" fill="white"/>
<path d="M353.205 62.6846L313.025 26.02L313.259 60.3191H301.79V0H302.258L342.36 37.2165L342.126 2.28661H353.517V62.6846H353.205Z" fill="white"/>
<path d="M364.794 31.3817C364.794 27.3867 365.548 23.602 367.056 20.0275C368.565 16.4531 370.645 13.2991 373.298 10.5657C376.002 7.77973 379.123 5.59825 382.66 4.02128C386.197 2.44431 389.994 1.65582 394.051 1.65582C398.056 1.65582 401.827 2.44431 405.364 4.02128C408.9 5.59825 412.021 7.77973 414.726 10.5657C417.483 13.2991 419.615 16.4531 421.123 20.0275C422.684 23.602 423.464 27.3867 423.464 31.3817C423.464 35.4819 422.684 39.3192 421.123 42.8936C419.615 46.4681 417.483 49.622 414.726 52.3554C412.021 55.0363 408.9 57.1389 405.364 58.6633C401.827 60.1877 398.056 60.9499 394.051 60.9499C389.994 60.9499 386.197 60.1877 382.66 58.6633C379.123 57.1389 376.002 55.0363 373.298 52.3554C370.645 49.622 368.565 46.4681 367.056 42.8936C365.548 39.3192 364.794 35.4819 364.794 31.3817ZM376.497 31.3817C376.497 34.7985 377.277 37.9262 378.837 40.7647C380.45 43.5507 382.608 45.7847 385.313 47.4668C388.017 49.0964 391.06 49.9111 394.441 49.9111C397.718 49.9111 400.656 49.0964 403.257 47.4668C405.91 45.7847 407.99 43.5507 409.499 40.7647C411.007 37.9262 411.761 34.7985 411.761 31.3817C411.761 27.8598 410.981 24.7059 409.421 21.9199C407.86 19.0814 405.754 16.8473 403.101 15.2178C400.448 13.5357 397.458 12.6946 394.129 12.6946C390.8 12.6946 387.809 13.5357 385.157 15.2178C382.504 16.8473 380.397 19.0814 378.837 21.9199C377.277 24.7059 376.497 27.8598 376.497 31.3817Z" fill="white"/>
<path d="M425.18 2.68085H438.443L449.756 36.2703L458.494 14.1139L453.969 2.68085H465.204L478.077 34.9299L487.829 2.68085H500L477.843 62.8423L464.189 28.4643L448.273 63L425.18 2.68085Z" fill="white"/>
</svg>
